<svg width="142" height="142" viewBox="0 0 142 142" fill="none" xmlns="http://www.w3.org/2000/svg">
<rect y="70.7107" width="100" height="100" rx="10" transform="rotate(-45 0 70.7107)" fill="#E5E6E9"/>
<path d="M53.7561 100.711V42.5289H60.8016V71.3925H61.4834L87.6198 42.5289H96.8243L72.3925 68.7789L96.8243 100.711H88.3016L68.0743 73.6652L60.8016 81.8471V100.711H53.7561Z" fill="url(#paint0_linear_4_28)"/>
<path d="M71.2107 9.71069L10.7107 69.7107L71.2107 131.211L132.711 69.7107L71.2107 9.71069Z" stroke="url(#paint1_linear_4_28)"/>
<path d="M11.7107 69.7107H53.7107V100.711H60.7107V81.7107L67.7107 73.7107L88.2107 100.711H96.7107L72.2107 68.7107L96.7107 42.7107H87.7107L61.7107 71.2107H60.7107V42.7107H53.7107V69.2107" stroke="url(#paint2_linear_4_28)"/>
<path d="M131.711 69.7107L75.7107 68.7107L99.2107 99.7107" stroke="url(#paint3_linear_4_28)"/>
<path d="M67.7107 77.2107L62.2107 83.2107L85.7107 101.211L67.7107 77.2107Z" stroke="url(#paint4_linear_4_28)"/>
<path d="M132.211 69.7107H131.211" stroke="url(#paint5_linear_4_28)"/>
<path d="M10.7107 69.7107H11.7107" stroke="url(#paint6_linear_4_28)"/>
<path d="M71.2107 10.2107V41.2107H63.2107V65.7107L86.7107 39.7107H97.7107" stroke="url(#paint7_linear_4_28)"/>
<defs>
<linearGradient id="paint0_linear_4_28" x1="74.7107" y1="22.7107" x2="74.7107" y2="101.711" gradientUnits="userSpaceOnUse">
<stop offset="0.265212" stop-color="#682B84"/>
<stop offset="0.468349" stop-color="#3D1FF5" stop-opacity="0.333723"/>
<stop offset="0.9999" stop-color="#54D119" stop-opacity="0.191348"/>
<stop offset="1" stop-color="white" stop-opacity="0"/>
</linearGradient>
<linearGradient id="paint1_linear_4_28" x1="71.7107" y1="9.71069" x2="71.7107" y2="131.211" gradientUnits="userSpaceOnUse">
<stop offset="0.140204" stop-color="#1B38D4"/>
<stop offset="0.739198" stop-color="#138D77" stop-opacity="0.83"/>
</linearGradient>
<linearGradient id="paint2_linear_4_28" x1="54.2107" y1="42.7107" x2="54.2107" y2="100.711" gradientUnits="userSpaceOnUse">
<stop offset="0.140204" stop-color="#1B38D4"/>
<stop offset="0.739198" stop-color="#138D77" stop-opacity="0.83"/>
</linearGradient>
<linearGradient id="paint3_linear_4_28" x1="103.711" y1="68.7107" x2="103.711" y2="99.7107" gradientUnits="userSpaceOnUse">
<stop offset="0.140204" stop-color="#1B38D4"/>
<stop offset="0.739198" stop-color="#138D77" stop-opacity="0.83"/>
</linearGradient>
<linearGradient id="paint4_linear_4_28" x1="73.9607" y1="77.2107" x2="73.9607" y2="101.211" gradientUnits="userSpaceOnUse">
<stop offset="0.140204" stop-color="#1B38D4"/>
<stop offset="0.739198" stop-color="#138D77" stop-opacity="0.83"/>
</linearGradient>
<linearGradient id="paint5_linear_4_28" x1="131.711" y1="69.7107" x2="131.711" y2="70.7107" gradientUnits="userSpaceOnUse">
<stop offset="0.140204" stop-color="#1B38D4"/>
<stop offset="0.739198" stop-color="#138D77" stop-opacity="0.83"/>
</linearGradient>
<linearGradient id="paint6_linear_4_28" x1="11.2107" y1="69.7107" x2="11.2107" y2="70.7107" gradientUnits="userSpaceOnUse">
<stop offset="0.140204" stop-color="#1B38D4"/>
<stop offset="0.739198" stop-color="#138D77" stop-opacity="0.83"/>
</linearGradient>
<linearGradient id="paint7_linear_4_28" x1="80.4607" y1="10.2107" x2="80.4607" y2="65.7107" gradientUnits="userSpaceOnUse">
<stop offset="0.140204" stop-color="#1B38D4"/>
<stop offset="0.739198" stop-color="#138D77" stop-opacity="0.83"/>
</linearGradient>
</defs>
</svg>
